<?xml version="1.0" standalone="no"?>
<!DOCTYPE svg PUBLIC "-//W3C//DTD SVG 20010904//EN"
 "http://www.w3.org/TR/2001/REC-SVG-20010904/DTD/svg10.dtd">
<svg version="1.0" xmlns="http://www.w3.org/2000/svg"
 width="250.000000pt" height="250.000000pt" viewBox="0 0 250.000000 250.000000"
 preserveAspectRatio="xMidYMid meet">

<g transform="translate(0.000000,250.000000) scale(0.100000,-0.100000)"
fill="#000000" stroke="none">
<path d="M934 2155 c-4 -9 -4 -45 -2 -80 4 -61 3 -65 -17 -65 -28 0 -46 -15
-86 -75 -18 -27 -61 -80 -95 -116 -34 -36 -67 -76 -74 -90 -7 -13 -57 -86
-111 -161 -55 -76 -99 -144 -99 -153 0 -8 9 -15 20 -15 19 0 20 -7 20 -180 0
-149 -2 -180 -14 -180 -48 0 -83 -131 -72 -264 8 -89 1 -91 -32 -6 -24 61 -25
93 -16 328 6 149 5 152 -15 152 -24 0 -36 -20 -46 -78 -5 -32 -10 -41 -18 -33
-15 15 -23 14 -41 -5 -36 -35 -8 -166 52 -252 11 -15 23 -38 27 -52 6 -19 -9
-9 -66 44 -109 101 -184 130 -203 80 -15 -40 36 -75 151 -104 59 -15 143 -89
166 -147 10 -25 16 -50 15 -55 -2 -5 -28 10 -58 33 -63 47 -149 89 -185 89
-59 0 -77 -77 -25 -109 l31 -18 -26 -17 c-16 -11 -25 -26 -25 -42 0 -23 3 -26
28 -21 15 3 59 17 97 31 94 34 132 34 173 -3 17 -17 32 -34 32 -38 0 -4 -25
-6 -56 -5 -60 4 -94 -14 -94 -50 0 -23 55 -25 125 -3 54 16 70 10 86 -32 l9
-23 733 0 733 1 35 52 c49 73 67 80 140 55 68 -23 112 -21 117 6 6 28 -10 37
-84 45 l-69 7 60 18 c33 10 74 22 92 27 77 24 114 89 51 89 -42 -1 -101 -28
-158 -73 -24 -20 -46 -34 -48 -32 -5 5 62 115 86 140 21 23 95 49 184 66 32 5
68 19 80 30 23 19 23 19 3 34 -11 9 -28 14 -37 11 -12 -3 -18 2 -18 14 0 10
-6 23 -14 29 -25 21 -68 -6 -149 -92 -42 -45 -74 -73 -71 -62 18 54 86 184
114 220 49 61 83 124 76 140 -8 21 -20 19 -54 -10 -31 -26 -42 -24 -42 6 0 22
-44 54 -61 44 -26 -17 -39 -76 -39 -187 0 -125 -16 -207 -55 -289 l-25 -54 4
50 c3 28 10 84 15 125 17 117 -5 185 -48 146 -28 -25 -33 -89 -16 -200 22
-143 20 -175 -12 -224 l-28 -43 -7 328 c-4 180 -4 372 -1 425 5 95 6 97 34
108 49 21 52 32 16 85 -42 62 -92 149 -116 201 -10 23 -32 56 -49 75 -16 19
-37 50 -47 69 -30 58 -138 188 -168 201 -22 9 -91 10 -310 2 -155 -6 -284 -9
-286 -7 -2 1 -6 34 -9 71 -2 37 -10 71 -16 75 -21 14 -86 9 -92 -7z m76 -39
c0 -7 3 -34 6 -60 6 -44 6 -46 -19 -46 -29 0 -37 16 -37 76 0 40 2 44 25 44
14 0 25 -6 25 -14z m386 -138 c-9 -13 -31 -44 -49 -69 -60 -86 -297 -396 -336
-440 -21 -24 -43 -41 -47 -36 -4 4 4 20 18 35 14 15 60 79 103 142 43 63 101
144 130 180 28 36 72 95 98 132 46 65 58 76 86 77 10 1 10 -4 -3 -21z m87 10
c-5 -7 -53 -67 -106 -134 -53 -67 -106 -139 -118 -160 -13 -21 -63 -90 -112
-151 -70 -89 -94 -113 -113 -113 -29 0 -27 5 26 70 20 25 78 102 127 171 50
69 128 172 172 228 66 81 87 101 108 101 19 0 23 -3 16 -12z m19 -45 c-27 -32
-58 -72 -68 -89 -11 -17 -40 -57 -66 -90 -26 -32 -93 -121 -149 -196 -55 -76
-107 -138 -115 -138 -18 0 -19 -2 75 123 43 56 101 138 131 181 68 102 209
266 228 266 8 0 -7 -24 -36 -57z m85 15 c-19 -24 -56 -77 -83 -118 -26 -41
-80 -114 -119 -161 -39 -47 -98 -122 -131 -167 -44 -61 -64 -82 -81 -82 -13 0
-23 2 -23 5 0 8 176 245 219 295 21 25 54 70 74 101 50 78 135 169 159 169 17
0 15 -5 -15 -42z m-569 -22 c-24 -29 -65 -82 -91 -117 -26 -35 -62 -83 -80
-106 -18 -23 -56 -74 -85 -115 -77 -107 -141 -173 -155 -159 -8 8 -4 18 15 38
41 44 184 227 293 376 76 103 105 136 123 136 20 1 19 -3 -20 -53z m36 -28
c-63 -91 -121 -169 -263 -355 -64 -86 -99 -123 -113 -123 -18 0 -17 3 9 33 16
19 64 83 106 143 70 99 112 157 243 327 24 31 51 57 60 57 11 0 -2 -25 -42
-82z m115 50 c-13 -18 -44 -60 -70 -93 -25 -33 -81 -112 -123 -175 -98 -148
-190 -254 -222 -258 -13 -2 -24 -1 -24 2 0 2 53 76 118 163 65 87 156 211 201
276 74 104 86 117 113 117 l29 0 -22 -32z m51 -19 c-22 -28 -40 -54 -40 -59 0
-4 -23 -38 -51 -76 -28 -38 -101 -137 -162 -221 -86 -117 -117 -152 -134 -153
-13 0 -23 3 -23 6 0 4 31 46 68 93 77 97 138 185 175 251 14 25 48 71 77 104
28 32 58 69 67 82 9 14 25 24 39 24 24 0 23 -2 -16 -51z m113 39 c-54 -70
-150 -202 -206 -283 -102 -147 -199 -265 -219 -265 -25 0 -23 4 27 70 24 32
82 113 127 181 46 69 114 166 152 217 60 80 73 92 99 92 22 0 27 -3 20 -12z
m372 -60 c32 -40 67 -88 78 -108 11 -19 35 -53 52 -75 17 -22 53 -80 80 -130
26 -49 61 -106 77 -125 27 -33 36 -60 21 -60 -5 0 -19 19 -32 43 -32 56 -93
139 -156 212 -29 33 -58 71 -65 85 -34 69 -107 170 -122 170 -19 0 -50 -39
-96 -120 -17 -30 -63 -93 -102 -139 -38 -47 -91 -117 -117 -157 -43 -65 -73
-92 -73 -65 0 6 48 72 106 148 58 76 130 176 161 223 50 77 120 170 127 170 2
0 29 -32 61 -72z m-832 0 c-32 -35 -78 -89 -101 -120 -23 -31 -46 -59 -52 -63
-5 -3 -29 -34 -52 -68 -22 -34 -61 -83 -85 -110 -24 -26 -51 -63 -59 -82 -8
-19 -19 -35 -24 -35 -16 0 3 31 90 145 43 57 83 112 89 124 6 11 39 51 72 88
33 38 79 94 100 126 27 39 46 57 61 57 17 0 11 -11 -39 -62z m107 53 c0 -6 -4
-12 -9 -15 -5 -3 -26 -32 -47 -63 -21 -32 -69 -96 -107 -143 -38 -47 -96 -119
-129 -160 -83 -103 -141 -165 -145 -153 -7 20 17 64 60 111 24 26 63 75 85
109 23 34 47 65 52 68 6 4 29 32 52 63 47 64 167 192 180 192 4 0 8 -4 8 -9z
m721 -168 c34 -54 85 -127 114 -163 28 -36 70 -92 93 -125 l41 -60 2 -185 c2
-102 2 -323 1 -492 l-2 -308 -345 0 -345 0 0 470 c0 406 2 470 15 470 8 0 20
10 26 23 17 32 155 221 199 272 21 24 52 70 70 102 29 51 58 93 66 93 1 0 30
-44 65 -97z m-465 -430 c-3 -21 -6 -233 -6 -470 l0 -433 -120 0 -120 0 0 154
c0 111 -3 156 -12 164 -19 15 -101 25 -138 17 -43 -9 -49 -30 -56 -196 l-7
-140 -126 3 -126 3 -3 462 -2 462 47 4 c27 2 189 4 362 5 l314 2 -7 -37z
m-903 -243 c-5 -66 -8 -78 -15 -59 -13 33 3 161 18 147 2 -3 1 -42 -3 -88z
m1891 -25 c0 -65 -25 -168 -45 -190 -13 -13 -11 207 1 240 7 17 16 25 28 23
14 -3 17 -15 16 -73z m66 -15 c-18 -28 -35 -49 -37 -46 -6 5 25 66 45 89 29
33 24 8 -8 -43z m-2003 -20 c26 -53 44 -178 23 -165 -24 15 -70 129 -70 173 0
55 17 52 47 -8z m192 -105 c0 -11 -11 -51 -24 -90 l-25 -70 4 75 c4 80 23 140
38 118 4 -7 8 -22 7 -33z m1594 -12 c5 -27 2 -62 -10 -133 l-6 -35 -7 30 c-10
39 -12 129 -4 149 9 24 21 19 27 -11z m-1930 -33 c54 -34 59 -43 20 -34 -35 8
-93 43 -93 55 0 17 26 9 73 -21z m2217 6 c0 -15 -47 -54 -99 -80 l-34 -18 22
30 c44 62 111 103 111 68z m-1872 -313 l-3 -98 -27 46 c-36 60 -36 107 -1 232
l28 98 3 -90 c1 -49 1 -134 0 -188z m1927 268 c-6 -5 -28 -12 -50 -16 -39 -6
-39 -6 -15 9 27 17 80 22 65 7z m-1535 -126 c0 -21 -5 -25 -30 -25 -16 0 -30
4 -30 9 0 25 14 41 36 41 19 0 24 -5 24 -25z m80 0 c18 -21 2 -35 -32 -28 -19
4 -28 12 -28 24 0 24 42 26 60 4z m-755 -44 c33 -16 69 -36 80 -45 22 -19 30
-19 -108 0 -48 6 -77 24 -77 48 0 35 29 34 105 -3z m2084 -15 c-17 -17 -122
-49 -114 -35 12 19 113 62 124 52 3 -2 -2 -10 -10 -17z m-1326 -3 c3 -5 1 -57
-3 -118 l-7 -110 -1 106 c-2 121 -5 124 -78 113 l-42 -6 -7 -97 c-3 -53 -8
-100 -10 -106 -6 -18 -5 162 1 194 l7 31 68 0 c37 0 70 -3 72 -7z m-35 -125
l-3 -93 -44 -3 c-41 -3 -43 -2 -37 20 3 13 6 56 6 96 l0 72 40 0 41 0 -3 -92z
m-698 64 c0 -4 -23 -17 -52 -28 -29 -10 -56 -20 -60 -22 -4 -2 -8 1 -8 7 0 6
17 19 38 30 38 21 82 27 82 13z m1989 -78 c10 -9 -35 -3 -49 6 -11 8 -7 9 15
4 17 -4 32 -8 34 -10z m-1845 -33 c3 -5 -10 -11 -30 -13 -35 -4 -55 6 -32 15
21 9 56 8 62 -2z"/>
<path d="M1608 1779 c-31 -18 -20 -89 13 -89 28 0 45 43 31 75 -13 27 -19 29
-44 14z"/>
<path d="M1562 1398 c-17 -17 -17 -277 1 -283 6 -2 44 -1 82 3 l70 7 3 143 3
142 -74 0 c-43 0 -78 -5 -85 -12z m66 -75 c-3 -51 -6 -58 -25 -61 -22 -3 -23
0 -23 57 0 59 1 61 25 61 25 0 26 -2 23 -57z m65 0 c-6 -62 -14 -79 -32 -68
-9 5 -10 82 -2 123 1 1 10 2 20 2 18 0 19 -5 14 -57z m-81 -95 c22 -18 13 -88
-12 -88 -12 0 -19 10 -23 36 -9 57 4 76 35 52z m78 -43 c0 -28 -4 -35 -20 -35
-16 0 -20 7 -20 35 0 28 4 35 20 35 16 0 20 -7 20 -35z"/>
<path d="M1605 941 l-60 -6 -3 -138 -3 -138 88 3 88 3 3 138 c2 114 0 137 -12
137 -8 0 -20 1 -28 3 -7 2 -40 1 -73 -2z m10 -31 c8 0 12 -15 11 -47 -1 -45
-3 -48 -29 -51 -27 -3 -27 -3 -27 53 0 48 3 56 16 51 9 -3 21 -6 29 -6z m85
-49 c0 -28 -4 -52 -9 -56 -17 -10 -41 26 -41 59 0 37 6 46 32 46 15 0 18 -8
18 -49z m-77 -118 c5 -47 2 -53 -29 -53 -22 0 -24 4 -24 45 0 41 2 45 24 45
20 0 25 -6 29 -37z m77 -7 c0 -22 -6 -36 -17 -40 -24 -10 -34 6 -27 42 5 22
12 32 25 32 15 0 19 -7 19 -34z"/>
<path d="M682 1120 l3 -135 63 0 c36 0 68 5 73 11 5 7 8 67 7 135 l-3 124 -73
0 -73 0 3 -135z m118 60 c0 -38 -4 -50 -15 -50 -11 0 -15 12 -15 50 0 38 4 50
15 50 11 0 15 -12 15 -50z m-60 -1 c0 -33 -3 -40 -17 -37 -32 6 -30 78 2 78
11 0 15 -11 15 -41z m0 -125 c0 -58 -25 -61 -35 -4 -8 45 -1 62 20 53 10 -3
15 -20 15 -49z m60 1 c0 -24 -5 -35 -15 -35 -10 0 -15 11 -15 35 0 24 5 35 15
35 10 0 15 -11 15 -35z"/>
<path d="M990 1130 c0 -69 4 -131 8 -138 7 -10 24 -11 73 -5 l64 8 0 130 0
130 -72 0 -73 0 0 -125z m120 50 c0 -38 -4 -50 -15 -50 -11 0 -15 12 -15 50 0
38 4 50 15 50 11 0 15 -12 15 -50z m-60 -1 c0 -33 -3 -40 -17 -37 -32 6 -30
78 2 78 11 0 15 -11 15 -41z m3 -116 c7 -40 2 -53 -17 -53 -13 0 -30 76 -20
92 11 17 32 -6 37 -39z m57 -8 c0 -24 -5 -35 -15 -35 -10 0 -15 11 -15 35 0
24 5 35 15 35 10 0 15 -11 15 -35z"/>
</g>
</svg>
